<svg width="14" height="15" viewBox="0 0 14 15" fill="none" xmlns="http://www.w3.org/2000/svg">
<path d="M7 13.8441C10.2824 13.8441 13 11.1206 13 7.84412C13 6.47353 12.5235 5.20294 11.7294 4.1853L12.1882 3.72059C12.3235 3.5853 12.4 3.40294 12.4 3.24412C12.4 2.91471 12.1353 2.65 11.7941 2.65C11.5941 2.65 11.4529 2.70882 11.3118 2.84412L10.8647 3.27941C9.97059 2.51471 8.84706 2.00882 7.62353 1.87941V1.30294C7.62353 0.950001 7.34706 0.655884 6.99412 0.655884C6.65294 0.655884 6.36471 0.950001 6.36471 1.30294V1.87941C3.37059 2.19706 1 4.77941 1 7.84412C1 11.1206 3.72353 13.8441 7 13.8441ZM7 12.8441C4.22353 12.8441 2.00588 10.6206 2.00588 7.84412C2.00588 5.06765 4.21765 2.84412 6.99412 2.84412C9.77059 2.84412 11.9941 5.06765 12 7.84412C12.0059 10.6206 9.77647 12.8441 7 12.8441ZM7 8.79706C7.52353 8.79706 7.94706 8.37353 7.94706 7.85C7.94706 7.47941 7.73529 7.15588 7.40588 6.99706V4.07353C7.40588 3.84412 7.22353 3.66765 6.99412 3.66765C6.76471 3.66765 6.58824 3.84412 6.58824 4.07353V6.99118C6.26471 7.16177 6.05294 7.47941 6.05294 7.85C6.05294 8.37353 6.47059 8.79706 7 8.79706Z" fill="#F2A33C" stroke="#F2A33C" stroke-width="0.5"/>
</svg>
